<?xml version="1.0" encoding="UTF-8"?>
<svg xmlns="http://www.w3.org/2000/svg" xmlns:xlink="http://www.w3.org/1999/xlink" width="30px" height="30px" viewBox="0 0 30 30" version="1.1">
<g id="surface1">
<path style=" stroke:none;fill-rule:nonzero;fill:rgb(69.803922%,13.333333%,13.333333%);fill-opacity:1;" d="M 15 0 C 6.730469 0 0 6.730469 0 15 C 0 23.269531 6.730469 30 15 30 C 23.269531 30 30 23.269531 30 15 C 30 6.730469 23.269531 0 15 0 Z M 15 27.855469 C 7.910156 27.855469 2.144531 22.089844 2.144531 15 C 2.144531 7.910156 7.910156 2.144531 15 2.144531 C 22.089844 2.144531 27.855469 7.910156 27.855469 15 C 27.855469 22.089844 22.089844 27.855469 15 27.855469 Z M 15 27.855469 "/>
<path style=" stroke:none;fill-rule:nonzero;fill:rgb(69.803922%,13.333333%,13.333333%);fill-opacity:1;" d="M 19.597656 10.402344 C 19.179688 9.984375 18.5 9.984375 18.082031 10.402344 L 15 13.484375 L 11.917969 10.402344 C 11.5 9.984375 10.820312 9.984375 10.402344 10.402344 C 9.984375 10.820312 9.984375 11.5 10.402344 11.917969 L 13.484375 15 L 10.402344 18.082031 C 10.097656 18.386719 10.003906 18.847656 10.171875 19.25 C 10.335938 19.648438 10.726562 19.910156 11.160156 19.910156 C 11.445312 19.910156 11.71875 19.796875 11.917969 19.597656 L 15 16.515625 L 18.082031 19.597656 C 18.289062 19.804688 18.566406 19.910156 18.839844 19.910156 C 19.113281 19.910156 19.386719 19.804688 19.597656 19.597656 C 20.015625 19.179688 20.015625 18.5 19.597656 18.082031 L 16.515625 15 L 19.597656 11.917969 C 20.015625 11.5 20.015625 10.820312 19.597656 10.402344 Z M 19.597656 10.402344 "/>
</g>
</svg>
