<svg xmlns="http://www.w3.org/2000/svg" viewBox="0 0 74.207 74.207" style="enable-background:new 0 0 74.207 74.207" fill="#397a93" xml:space="preserve"><path d="M57.746 14.658h-2.757l-1.021-3.363a7.446 7.446 0 0 0-7.164-5.313H28.801a7.445 7.445 0 0 0-7.165 5.313l-1.021 3.363h-4.153C7.385 14.658 0 22.043 0 31.121v20.642c0 9.077 7.385 16.462 16.462 16.462h41.283c9.077 0 16.462-7.385 16.462-16.462V31.121c.001-9.078-7.384-16.463-16.461-16.463zm10.462 37.104c0 5.769-4.693 10.462-10.462 10.462H16.462C10.693 62.223 6 57.53 6 51.762V31.121c0-5.769 4.693-10.462 10.462-10.462h8.603l2.313-7.621a1.48 1.48 0 0 1 1.423-1.055h18.003c.659 0 1.23.424 1.423 1.057l2.314 7.619h7.204c5.769 0 10.462 4.693 10.462 10.462l.001 20.641z"/><path d="M37.228 25.406c-8.844 0-16.04 7.195-16.04 16.04 0 8.844 7.195 16.039 16.04 16.039s16.041-7.195 16.041-16.039c0-8.845-7.196-16.04-16.041-16.04zm0 26.08c-5.536 0-10.04-4.504-10.04-10.039 0-5.536 4.504-10.04 10.04-10.04 5.537 0 10.041 4.504 10.041 10.04 0 5.535-4.504 10.039-10.041 10.039z"/></svg>