<?xml version="1.0" encoding="utf-8"?>
<!-- Generator: Adobe Illustrator 24.0.2, SVG Export Plug-In . SVG Version: 6.00 Build 0)  -->
<svg version="1.1" id="Layer_1" xmlns="http://www.w3.org/2000/svg" xmlns:xlink="http://www.w3.org/1999/xlink" x="0px" y="0px"
	 viewBox="0 0 512 512" style="enable-background:new 0 0 512 512;" xml:space="preserve">
<style type="text/css">
	.st0{fill:#C5E9F9;}
	.st1{fill:#5E889E;}
</style>
<circle class="st0" cx="256.3281" cy="255.9678" r="248.873"/>
<path class="st1" d="M278.5582,81.4652c25.3865,3.2324,49.0813,11.9001,69.8757,24.7717
	c-3.8472,2.9548-7.7015,5.9395-11.4978,8.9611c-3.6962,3.1498-7.4415,6.2698-11.1113,9.4793l-10.3612,9.6163
	c-2.4067-1.5934-5.3071-2.5262-8.4095-2.5262c-1.3263,0-2.5982,0.1809-3.8033,0.4884c-0.4919-0.8503-0.9627-1.7076-1.4388-2.5789
	c-2.6088-5.2842-5.409-10.5316-8.1231-15.8018c-2.477-5.3826-5.142-10.6897-7.7033-16.0794l-3.661-8.1951
	C281.1055,86.8847,279.8143,84.1793,278.5582,81.4652z M270.5862,83.4415c-0.8485,1.7515-2.0641,4.3462-3.6979,7.5856
	c-0.8046,1.6232-1.7075,3.4203-2.6948,5.3686c-0.9961,1.9394-2.1959,3.9913-3.4555,6.2013
	c-2.5824,4.3672-5.2421,9.5109-8.7573,14.681c-3.4081,5.2403-6.9566,11.0446-11.2905,16.7574
	c-2.1239,2.8863-4.2583,5.9009-6.5298,8.9084c-2.3452,2.9689-4.7326,5.9834-7.2237,9.0208
	c-1.2402,1.5038-2.4963,3.0374-3.7524,4.578c-1.3228,1.4897-2.6386,3.0005-3.9843,4.5113c-2.6825,3.0005-5.3563,6.1046-8.1407,9.142
	c-2.9021,2.932-5.8201,5.8868-8.7503,8.8328c-1.4809,1.4809-2.9021,3.0216-4.4428,4.4287l-1.6812,1.5635
	c0.7782,1.827,1.2209,3.849,1.2209,5.9694c0,1.0663-0.1195,2.1204-0.3232,3.12c0.8836,0.4216,1.7515,0.8274,2.6246,1.2701
	c4.5552,2.3066,9.1157,4.954,13.7956,7.496c4.7485,2.4946,9.3072,5.3598,13.9678,8.232c2.3154,1.4353,4.6536,2.9021,6.9953,4.376
	c1.7251,1.0979,3.4239,2.2855,5.1191,3.4731c2.5666-1.9535,5.7551-3.12,9.2053-3.12c0.9767,0,1.9254,0.0984,2.8564,0.2705
	l1.6584-2.8652c1.6267-2.7282,3.1042-5.5478,4.8679-8.1934l10.637-15.8106l2.6702-3.9315c0.8959-1.3228,1.8938-2.5402,2.8406-3.8191
	c1.9148-2.5262,3.8683-5.0365,5.8165-7.5329c3.9193-4.9838,7.698-10.0661,12.0283-14.7267
	c0.8836-1.0224,1.7936-2.0378,2.6913-3.0602c-1.9166-2.5402-3.0585-5.6988-3.0585-9.142c0-4.7133,2.1309-8.9382,5.5056-11.735
	l-1.3035-2.7809c-2.3575-5.5337-4.5675-11.1254-6.8232-16.6889c-2.0518-5.6602-3.9298-11.3819-5.8675-17.0421l-2.4401-8.6378
	c-0.7958-2.8793-1.5284-5.7955-2.3066-8.6747c-2.2029-0.3004-4.4427-0.534-6.6791-0.722
	C271.8792,80.7432,271.4312,81.683,270.5862,83.4415z M310.1741,292.1552c-1.7673-1.9166-3.5416-3.8473-5.3299-5.7955
	c-0.8801-0.9855-1.827-1.9184-2.7932-2.8336c-0.9557-0.917-1.9219-1.8498-2.8846-2.7827
	c-3.8472-3.712-7.7542-7.4802-11.6858-11.2765c-1.9201-1.9535-3.9843-3.7208-6.0537-5.5179
	c-2.0729-1.7971-4.1213-3.5943-6.1942-5.4125c-2.0642-1.7971-4.1564-3.6083-6.2171-5.4213c-1.0611-0.9012-2.0519-1.82-3.1428-2.6983
	l-3.3237-2.5789c-1.7462-1.3597-3.5135-2.6983-5.2579-4.0528c-2.4436,1.6232-5.3598,2.5789-8.5026,2.5789
	c-0.65,0-1.3-0.0527-1.95-0.1353c-2.1801,4.4726-4.1617,8.9382-6.2663,13.3968c-1.3457,2.7668-2.5104,5.6461-3.7032,8.5114
	l-3.575,8.601c-1.2069,2.8635-2.1871,5.8042-3.3114,8.7046l-3.2904,8.7134l-3.0005,8.8398
	c-0.9697,2.932-2.0747,5.8482-2.8863,8.8487l-2.6456,8.9382l-1.372,4.4586l-1.184,4.5165
	c-1.2104,4.6096-2.477,9.2088-3.5627,13.8325c1.4282,0.6623,2.7141,1.5336,3.849,2.5719c0.6957-0.4673,1.3615-0.924,2.0483-1.3826
	c3.6804-2.3013,7.4468-4.6395,11.2659-7.0374c7.7507-4.6079,15.8404-9.2386,24.35-13.4126c2.1274-1.0663,4.2478-2.1344,6.384-3.2236
	c2.1502-0.9996,4.3251-2.0009,6.514-3.0163c4.3532-1.9693,8.7169-4.0053,13.2264-5.7357c4.4762-1.7444,8.8856-3.6452,13.4302-5.2772
	c4.5499-1.6092,9.0437-3.257,13.5514-4.7959c0.6693-0.202,1.3228-0.3918,1.9886-0.5938c0-0.1194-0.0193-0.2424-0.0193-0.3531
	c0-3.0374,0.903-5.8569,2.4296-8.2338C310.7679,292.7859,310.4552,292.4802,310.1741,292.1552z M89.1124,280.2481
	c2.5824,2.0378,5.0893,4.1564,7.7015,6.1644c5.2878,3.8719,10.3928,7.9176,15.6929,11.7139l7.9984,5.6532
	c2.679,1.8411,5.2737,3.8261,8.0581,5.5267l8.1565,5.3756c2.7141,1.7954,5.4055,3.6083,8.2391,5.2245
	c2.7809,1.6777,5.5776,3.3237,8.3445,5.0366l4.1564,2.542l4.2408,2.3751l8.5149,4.7361c1.4247,0.7729,2.8371,1.6092,4.2741,2.3382
	l4.3461,2.2029c5.221,2.6456,10.3595,5.4283,15.6823,7.8561c2.6158-2.7809,6.261-4.578,10.3524-4.7818
	c0.8608-4.8029,1.9166-9.5689,2.9021-14.3665c1.1507-6.2399,2.9812-12.3305,4.5394-18.4861
	c0.7484-3.0901,1.7585-6.0888,2.6615-9.1403l2.7809-9.1122c2.0378-5.9993,4.1231-12.0055,6.3945-17.945l3.5627-8.8329
	c1.1841-2.9548,2.3558-5.9008,3.7331-8.803c2.101-4.6097,4.1353-9.3441,6.3453-13.8553c-2.6316-2.7511-4.2583-6.4665-4.2583-10.5703
	c0-1.5565,0.2372-3.0673,0.6763-4.4884c-1.6092-1.1577-3.2289-2.3083-4.8679-3.3835c-2.2925-1.4581-4.5447-2.9162-6.8003-4.3602
	c-4.4955-2.9162-8.8715-5.8938-13.3705-8.4428c-4.4884-2.6087-8.7661-5.3071-13.193-7.7279
	c-0.8784-0.4814-1.7216-0.9399-2.5947-1.4124c-2.7809,3.0514-6.781,4.9698-11.2378,4.9698c-2.8037,0-5.4125-0.7589-7.6752-2.0835
	c-6.4736,5.0893-12.9155,10.1258-19.3996,14.479c-6.326,4.6308-12.8031,8.5851-18.8919,12.3972
	c-6.2434,3.5855-12.0055,7.164-17.6376,9.8922c-2.7844,1.4353-5.4459,2.7967-7.9879,4.1055
	c-2.5262,1.3088-5.0594,2.3224-7.3449,3.3905c-4.6307,2.1204-8.6484,3.9316-12.0775,5.1876
	c-6.7845,2.6614-10.7002,4.0598-10.7002,4.0598c0.0527,5.5636,0.3759,11.0516,0.9311,16.4641
	C83.9704,276.1514,86.537,278.2191,89.1124,280.2481z M317.1589,287.6457c2.036-0.9996,4.3075-1.5775,6.7388-1.5775
	c5.7147,0,10.6792,3.1411,13.2985,7.8017c3.0479-0.7519,6.0818-1.4739,9.0507-2.1871c4.2407-0.8643,8.4464-1.5248,12.5009-2.2785
	c4.0457-0.7202,8.0212-1.3825,11.8298-2.029c3.8385-0.6096,7.6031-0.8643,11.1851-1.2841
	c3.5785-0.3918,7.0216-0.7519,10.2769-1.0453c3.271-0.3162,6.3558-0.6535,9.2597-0.6922c2.4963-0.0984,4.8345-0.1669,7.0374-0.2178
	c0.0175-3.1059,0.9539-5.9694,2.5472-8.3603c-0.5112-0.3619-1.0031-0.715-1.4967-1.0751l-4.7625-3.4871l-4.5816-3.7137
	l-9.0928-7.5487c-1.4932-1.2701-3.0673-2.4717-4.5095-3.8174l-4.3075-4.0528l-8.5974-8.1266
	c-2.932-2.6456-5.5934-5.5636-8.2918-8.4428l-8.0634-8.6835l-2.015-2.1731l-1.9131-2.2556l-3.8033-4.5482l-7.4925-9.1719
	c-1.2929-1.5108-2.4471-3.1199-3.5978-4.7133l-3.5064-4.7818c-2.3294-3.2113-4.6992-6.3681-6.9777-9.5865
	c-2.2346-3.2623-4.2776-6.6457-6.4226-9.9765l-6.3629-10.0063c-1.4967-2.556-2.9021-5.1876-4.3233-7.8034
	c-1.1928,0.3074-2.4278,0.4813-3.7137,0.4813c-2.4436,0-4.7502-0.5938-6.8038-1.6162c-0.8151,1.0365-1.6267,2.0887-2.4436,3.1199
	c-3.9983,4.7818-7.4485,9.9905-11.0059,15.0798c-1.7778,2.556-3.5627,5.1051-5.3756,7.6295
	c-0.8994,1.2789-1.8498,2.5104-2.6755,3.8191l-2.477,3.9544l-9.9132,15.7877c-2.0975,3.6083-4.1371,7.2535-6.1538,10.9234
	c2.3944,2.7001,3.849,6.2171,3.849,10.103c0,1.8042-0.3197,3.5328-0.8994,5.1261c1.748,1.3843,3.4766,2.7598,5.2263,4.1195
	l3.3044,2.6087c1.0892,0.903,2.1344,1.8867,3.206,2.8196c2.1344,1.8797,4.2583,3.7805,6.3787,5.6602
	c2.1239,1.8867,4.239,3.7664,6.3594,5.6461c2.101,1.8867,4.2636,3.6997,6.1573,5.7357c3.9017,3.986,7.77,7.9527,11.6032,11.8562
	c0.9469,0.9697,1.8938,1.9535,2.8442,2.9162c0.9592,0.9627,1.9025,1.9394,2.7668,2.9689c1.7637,2.036,3.5293,4.0528,5.2772,6.073
	C316.5827,286.9693,316.8532,287.3066,317.1589,287.6457z M412.7654,273.4443c2.7651-2.7967,6.6-4.5254,10.832-4.5254
	c2.7299,0,5.2965,0.715,7.503,1.9851c0.4445-4.9997,0.6623-10.0731,0.6623-15.1922c0-63.1404-33.3112-118.502-83.327-149.4732
	c-3.3782,3.4959-6.7845,6.9531-10.2101,10.3823c-3.322,3.5258-6.5965,7.1042-9.9378,10.5632l-9.2597,10.4034
	c2.0518,2.5947,3.2851,5.864,3.2851,9.4424c0,4.1722-1.6724,7.9387-4.3865,10.7055l4.4797,7.4275l6.3752,9.713
	c2.152,3.2254,4.1687,6.5175,6.4243,9.6673c2.3066,3.1059,4.513,6.2926,6.788,9.4354l3.3712,4.7291
	c1.1208,1.5775,2.2223,3.1727,3.4555,4.6465l7.25,9.1122l3.5591,4.578l1.7831,2.2925l1.8938,2.2029l7.619,8.803
	c2.563,2.9021,4.954,5.9694,7.6839,8.7362l7.972,8.4938l3.9702,4.2706c1.3035,1.444,2.744,2.751,4.116,4.1283l8.3286,8.1864
	l4.1248,4.1564l4.3216,3.9316C411.8889,272.6397,412.3245,273.0455,412.7654,273.4443z M153.948,398.65
	c13.7921,9.8711,29.0598,17.7869,45.4256,23.3663c-0.1722-6.2926-0.4286-12.5993-0.3268-18.8919l0.2213-9.4653l0.1722-4.7432
	l0.3303-4.7361l0.6693-9.4793c0.0632-0.9469,0.1809-1.878,0.2828-2.8125c-2.1169-0.729-4.0334-1.9008-5.6268-3.4116
	c-0.9996,0.6465-1.9851,1.307-2.932,1.9693c-2.9021,2.029-5.683,3.986-8.3076,5.8481c-1.3386,0.917-2.6316,1.82-3.8894,2.6983
	c-1.2367,0.917-2.4401,1.7971-3.589,2.6632c-2.3312,1.7286-4.5183,3.3448-6.5175,4.8328c-1.0224,0.729-2.0044,1.4441-2.932,2.1204
	c-0.8995,0.7132-1.7673,1.3913-2.5824,2.0378c-6.1679,4.8486-9.9501,7.6822-10.363,7.9685c0.3759-0.4058,3.582-3.8349,9.0735-9.4424
	c2.8687-3.076,6.6826-6.4121,10.9602-10.3981c4.188-4.0897,9.3968-8.1635,14.9076-12.8242c0.91-0.7607,1.8656-1.4897,2.7967-2.2398
	c-0.8643-1.9183-1.3544-4.037-1.3544-6.2768c0-0.6096,0.0457-1.2174,0.116-1.8112c-5.4424-2.5648-10.702-5.4968-16.0284-8.2777
	l-4.3936-2.354c-1.4388-0.8187-2.8301-1.6988-4.2548-2.5473l-8.5184-5.1349l-4.2548-2.5789l-4.1195-2.7668
	c-2.7809-1.8182-5.4951-3.7137-8.225-5.5636c-2.7669-1.834-5.4125-3.8332-8.0546-5.8183l-7.9281-5.9694
	c-2.6579-1.9465-5.1349-4.1722-7.6752-6.2768l-7.5996-6.3594c-2.5262-2.1204-4.8679-4.4955-7.2922-6.7125
	c-2.4102-2.2697-4.8328-4.5096-7.2096-6.8038c-4.6114-4.6747-9.1087-9.4565-13.5707-14.3121
	C86.7215,325.4365,114.1317,370.1576,153.948,398.65z M106.8694,162.9652c-16.7715,26.9201-26.4546,58.7047-26.4546,92.7448
	c0,0.6605,0,1.3228,0.0158,1.9693c0,0,3.5099-2.2627,9.7358-5.9764c3.1393-1.7971,6.8003-4.2548,11.0744-6.8864
	c4.2882-2.6246,9.005-5.7955,14.1628-9.1719c1.293-0.8503,2.5982-1.7146,3.9403-2.5947c1.3228-0.917,2.6386-1.8656,4.0141-2.8196
	c2.7282-1.8797,5.5407-3.8262,8.4639-5.8341c2.8336-2.0888,5.7515-4.2408,8.7134-6.4419c3.0444-2.1046,6.0098-4.4428,9.0436-6.781
	c3.0146-2.361,6.1714-4.6975,9.142-7.2465c3.0181-2.4735,6.0888-4.9698,9.1754-7.496c-0.65-1.6988-1.0189-3.5258-1.0189-5.4424
	c0-1.105,0.1195-2.1889,0.3566-3.2254c-2.867-1.444-5.6444-2.8494-8.4464-4.0001c-7.6488-3.3606-14.6002-6.6457-20.9473-9.0436
	c-3.1533-1.2701-6.124-2.4577-8.8522-3.5627c-2.7142-1.1665-5.293-2.0448-7.5961-2.8793c-8.687-3.0901-13.8395-5.0506-14.4491-5.293
	c0.6395,0.1353,6.0326,1.2561,15.006,3.3606c4.8152,0.9697,10.5369,2.7809,17.1527,4.6975
	c3.2851,0.9996,6.8706,1.9166,10.4789,3.271c3.6312,1.3088,7.4415,2.6685,11.4258,4.0897c2.9548,0.9996,5.9096,2.1871,8.9242,3.4572
	c2.7809-3.7295,7.2096-6.1415,12.2163-6.1415c2.5701,0,5.0172,0.6465,7.1376,1.7813l1.574-1.4212
	c1.5266-1.3597,2.9162-2.8336,4.3901-4.2408c2.9021-2.8705,5.8042-5.7199,8.6712-8.5324c2.7932-2.9021,5.5776-5.7656,8.3269-8.615
	c1.3527-1.4282,2.7282-2.8336,4.0704-4.239c1.3052-1.4598,2.5982-2.9021,3.8683-4.3233c2.5227-2.8863,5.0857-5.683,7.5803-8.413
	c2.4208-2.7809,4.7098-5.6005,7.0023-8.2918c1.1208-1.3457,2.2398-2.6843,3.3378-3.9843c0.5639-0.6693,1.1208-1.3088,1.6689-1.9623
	c0.5217-0.6553,1.0453-1.3158,1.5565-1.9623c2.0712-2.6087,4.0528-5.1191,5.9659-7.5469
	c3.9052-4.7959,7.1797-9.3809,10.2101-13.3951c1.5143-2.015,2.9197-3.9017,4.232-5.6461c1.2719-1.7901,2.4243-3.4291,3.4555-4.9171
	c2.0888-2.9689,3.777-5.2772,4.9171-6.8565c1.1524-1.5775,1.7708-2.4137,1.7708-2.4137c-5.214-0.4691-10.4684-0.7027-15.7983-0.7027
	C193.0933,80.037,137.8722,113.1742,106.8694,162.9652z M365.1053,393.4553c-6.5579,0.1599-13.1474,0.2038-19.7404,0.2038
	c-3.3044,0.0228-6.5807-0.2706-9.8658-0.4216l-9.8904-0.5411c-3.3079-0.0913-6.5667-0.6465-9.8553-0.9697l-9.85-1.1348
	c-3.2904-0.3092-6.5491-0.8643-9.8043-1.4581l-9.7903-1.6917l-4.8784-0.8872l-4.8503-1.0821
	c-3.2254-0.715-6.4454-1.4581-9.6708-2.2258l-4.8503-1.1507c-1.5934-0.4041-3.1726-0.903-4.766-1.3386l-9.5619-2.751
	c-6.4121-1.6829-12.652-4.1037-18.9481-6.2768c-3.9843-1.3-7.7981-2.8125-11.5804-4.3585
	c-2.7141,3.1727-6.7318,5.2105-11.2115,5.3141c-0.7115,3.9983-1.3386,7.9843-2.0044,11.9827l-0.7449,4.6237l-0.5973,4.6606
	l-1.2367,9.33c-0.7589,6.2171-1.2859,12.4798-2.0308,18.7338c17.7834,6.0748,36.8685,9.3669,56.7073,9.3669
	C297.2657,431.3831,335.1548,417.2046,365.1053,393.4553z M365.1194,393.4553c4.3795-3.4731,8.608-7.1552,12.6274-11.02
	c23.2714-22.3351,40.3732-50.9997,48.5789-83.2198c-0.8731,0.1511-1.7971,0.2336-2.7299,0.2336
	c-7.5627,0-13.8202-5.5109-15.0201-12.7205c-2.2065,0.3092-4.5148,0.6096-7.0059,0.917c-2.8986,0.3092-5.9202,0.903-9.1051,1.5108
	c-3.1727,0.6236-6.5333,1.2402-10.0327,1.841c-3.4731,0.6851-7.12,1.1805-10.8566,2.0536c-3.7049,0.903-7.5557,1.834-11.5241,2.737
	c-3.9544,0.9311-8.037,1.7954-12.1689,2.8635c-2.8564,0.8362-5.7761,1.7005-8.731,2.5648v0.1194
	c0,3.5925-1.249,6.8864-3.3307,9.4934c5.8569,7.3589,10.6071,15.1255,15.2361,22.0505c1.1753,1.7672,2.3171,3.4871,3.4309,5.1859
	c1.1243,1.7005,2.0132,3.4748,2.9987,5.1437c1.9025,3.336,3.6962,6.5245,5.4178,9.5092c1.6724,2.9847,3.3185,5.7498,4.6553,8.3972
	c1.2894,2.6825,2.477,5.1419,3.5627,7.3589c2.159,4.4287,3.7682,7.9387,4.903,10.3138c0.9855,2.0835,1.5565,3.3079,1.6794,3.5943
	c-0.1704-0.2565-0.8871-1.4071-2.1239-3.3764c-1.386-2.2398-3.4766-5.4722-6.0379-9.6673c-1.2842-2.0887-2.6913-4.3901-4.239-6.9022
	c-1.6092-2.4735-3.4924-5.0664-5.3896-7.9c-1.9219-2.7985-3.9509-5.8042-6.1099-8.9541c-1.105-1.5652-2.1537-3.2113-3.3589-4.8047
	c-1.1999-1.5934-2.4401-3.2236-3.6927-4.8784c-2.5121-3.3307-5.1191-6.788-7.8403-10.3647
	c-1.3386-1.7971-2.7001-3.6171-4.2759-5.3773c-1.3703-1.6671-2.7809-3.3589-4.2021-5.0506
	c-1.9851,0.9469-4.2039,1.4879-6.5456,1.4879c-5.2772,0-9.9255-2.6614-12.659-6.7353c-0.6623,0.2249-1.3052,0.4445-1.9465,0.6693
	c-4.3268,1.639-8.6976,3.2025-13.0771,4.8257c-4.3936,1.632-8.7169,3.5504-13.0683,5.3071
	c-4.3936,1.7146-8.622,3.8191-12.933,5.6989c-2.1362,0.9697-4.2706,1.9236-6.4086,2.8863c-2.087,1.0154-4.188,2.0536-6.2557,3.0673
	c-4.1722,2.0536-8.3251,4.037-12.2989,6.261c-3.9808,2.2029-8.037,4.1354-11.8702,6.3611
	c-3.8349,2.2029-7.6154,4.3585-11.2993,6.4946c-0.6535,0.3918-1.3158,0.7958-1.9622,1.1876
	c0.4919,1.5266,0.7817,3.1428,0.7817,4.8117c0,0.3759-0.0369,0.7519-0.0562,1.1208c3.77,1.5775,7.5364,3.1182,11.3186,4.4129
	l9.0841,3.3079c3.0022,1.1875,6.1116,2.1713,9.1895,3.1498l9.2615,3.0075c1.5459,0.4954,3.0901,1.0136,4.6501,1.4739l4.694,1.2912
	c3.1393,0.8274,6.2662,1.7075,9.402,2.5947l4.6799,1.3386l4.7467,1.1208l9.5144,2.2029c3.1727,0.729,6.3295,1.5406,9.5356,2.1046
	c6.4085,1.1875,12.7837,2.5631,19.2309,3.5943l19.3996,2.9548c6.5139,0.729,13.0279,1.4897,19.5559,2.3523l0.0158-4.239v4.2372
	H365.1194z"/>
</svg>
